<?xml version="1.0" encoding="utf-8"?>
<!-- Generator: Adobe Illustrator 24.0.2, SVG Export Plug-In . SVG Version: 6.00 Build 0)  -->
<svg version="1.1" id="Layer_1" xmlns="http://www.w3.org/2000/svg" xmlns:xlink="http://www.w3.org/1999/xlink" x="0px" y="0px"
	 viewBox="0 0 22.7 22.7" style="enable-background:new 0 0 22.7 22.7;" xml:space="preserve">
<style type="text/css">
	.st0{fill:#ED1C5C;}
</style>
<path id="X_1" class="st0" d="M18.6,15.9L14,11.3l4.6-4.6c0.4-0.4,0.4-0.9,0-1.3c0,0,0,0,0,0l-1.3-1.3c-0.4-0.4-1-0.4-1.3,0
	l-4.6,4.6L6.7,4.1c-0.4-0.4-1-0.4-1.3,0L4.1,5.4c-0.4,0.4-0.4,0.9,0,1.3c0,0,0,0,0,0l4.6,4.6l-4.6,4.6c-0.4,0.4-0.4,0.9,0,1.3
	c0,0,0,0,0,0l1.3,1.3c0.4,0.4,1,0.4,1.3,0l4.6-4.6l4.6,4.6c0.4,0.4,1,0.4,1.3,0l1.3-1.3C18.9,16.9,18.9,16.3,18.6,15.9
	C18.6,15.9,18.6,15.9,18.6,15.9z"/>
</svg>
